# AST/ASF file generated using VICON BodyLanguage
# -----------------------------------------------
:version 1.10
:name VICON
:units
  mass 1.0
  length 0.45
  angle deg
:documentation
   .ast/.asf automatically generated from VICON data using
   VICON BodyBuilder and BodyLanguage model FoxedUp or BRILLIANT.MOD
:root
   order TX TY TZ RX RY RZ
   axis XYZ
   position 0 0 0  
   orientation 0 0 0 
:bonedata
  begin
     id 1 
     name lhipjoint
     direction 0.630082 -0.636569 0.44472 
     length 2.82754 
     axis 0 0 0  XYZ
  end
  begin
     id 2 
     name lfemur
     direction 0.34202 -0.939693 0  
     length 7.26371  
     axis 0 0 20  XYZ
    dof rx ry rz
    limits (-160.0 20.0)
           (-70.0 70.0)
           (-60.0 70.0)
  end
  begin
     id 3 
     name ltibia
     direction 0.34202 -0.939693 0   
     length 7.88616   
     axis 0 0 20   XYZ
    dof rx
    limits (-10.0 170.0)
  end
  begin
     id 4 
     name lfoot
     direction 0.0603448 -0.165796 0.984312   
     length 1.77861   
     axis -90 7.62852e-016 20   XYZ
    dof rx rz
    limits (-45.0 90.0)
           (-70.0 20.0)
  end
  begin
     id 5 
     name ltoes
     direction 1.53577e-011 -4.21876e-011 1   
     length 0.902235   
     axis -90 7.62852e-016 20   XYZ
    dof rx
    limits (-90.0 20.0)
  end
  begin
     id 6 
     name rhipjoint
     direction -0.656778 -0.61817 0.431866   
     length 2.9117  
     axis 0 0 0  XYZ 
  end
  begin
     id 7 
     name rfemur
     direction -0.34202 -0.939693 0   
     length 6.81603   
     axis 0 0 -20   XYZ
    dof rx ry rz
    limits (-160.0 20.0)
           (-70.0 70.0)
           (-70.0 60.0)
  end
  begin
     id 8 
     name rtibia
     direction -0.34202 -0.939693 0   
     length 8.05997   
     axis 0 0 -20   XYZ
    dof rx
    limits (-10.0 170.0)
 end
 begin
     id 9 
     name rfoot
     direction -0.0862404 -0.236944 0.967688   
     length 1.84899  
     axis -90 -7.62852e-016 -20   XYZ
    dof rx rz
    limits (-45.0 90.0)
           (-20.0 70.0)
  end
  begin
     id 10 
     name rtoes
     direction -1.53561e-011 -4.21798e-011 1   
     length 0.931579   
     axis -90 -7.62852e-016 -20   XYZ
    dof rx
    limits (-90.0 20.0)
  end
  begin
     id 11 
     name lowerback
     direction -0.0110203 0.991769 -0.127564   
     length 2.05686   
     axis 0 0 0   XYZ
    dof rx ry rz
    limits (-20.0 45.0)
           (-30.0 30.0)
           (-30.0 30.0)
  end
  begin
     id 12 
     name upperback
     direction 0.0109719 0.99993 -0.00432479   
     length 2.06234   
     axis 0 0 0   XYZ
    dof rx ry rz
    limits (-20.0 45.0)
           (-30.0 30.0)
           (-30.0 30.0)
  end
  begin
     id 13 
     name thorax
     direction 0.0173308 0.998351 0.0547306   
     length 2.09856   
     axis 0 0 0   XYZ
    dof rx ry rz
    limits (-20.0 45.0)
           (-30.0 30.0)
           (-30.0 30.0)
  end
  begin
     id 14 
     name lowerneck
     direction -0.0311736 0.989033 0.144366   
     length 1.98151   
     axis 0 0 0   XYZ
    dof rx ry rz
    limits (-20.0 45.0)
           (-30.0 30.0)
           (-30.0 30.0)
  end
  begin
     id 15 
     name upperneck
     direction 0.0421057 0.975772 -0.214698   
     length 2.01457   
     axis 0 0 0   XYZ
    dof rx ry rz
    limits (-20.0 45.0)
           (-30.0 30.0)
           (-30.0 30.0)
  end
  begin
     id 16
     name head
     direction 0.0136911 0.995958 -0.0887718  
     length 2.03562  
     axis 0 0 0   XYZ
    dof rx ry rz
    limits (-20.0 45.0)
           (-30.0 30.0)
           (-30.0 30.0)
  end
  begin
     id 17 
     name lclavicle
     direction 0.915335 0.396201 0.0720134  
     length 4.16217  
     axis 0 0 0   XYZ
    dof ry rz
    limits (-20.0 10.0)
           (0.0 20.0)
  end
  begin
     id 18 
     name lhumerus
     direction 1 -4.48965e-011 6.383e-018   
     length 4.93042   
     axis -180 -30 -90   XYZ
    dof rx ry rz
    limits (-60.0 90.0)
           (-90.0 90.0)
           (-90.0 90.0)
  end
  begin
     id 19
     name lradius
     direction 1 -4.48972e-011 8.8689e-027   
     length 3.68177   
     axis -180 -30 -90   XYZ
    dof rx
    limits (-10.0 170.0)
  end
  begin
     id 20
     name lwrist
     direction 1 -4.48953e-011 1.17971e-026   
     length 1.84089   
     axis -7.69454e-015 90 90   XYZ
    dof ry
    limits (-180.0 0.0)
 end
  begin
     id 21 
     name lhand
     direction 1 -4.49027e-011 2.35802e-026   
     length 0.721479   
     axis -1.50533e-014 90 90   XYZ
    dof rx rz
    limits (-90.0 90.0)
           (-45.0 45.0)
  end
  begin
     id 22 
     name lfingers
     direction 1 -4.48915e-011 4.72027e-026   
     length 0.581675   
     axis -3.01059e-014 90 90   XYZ
    dof rx
    limits (0.0 90.0)
  end
  begin
     id 23
     name lthumb
     direction 0.707107 -6.34948e-011 0.707107   
     length 0.835172   
     axis -90 45 -5.12164e-014   XYZ
    dof rx rz
    limits (-45.0 45.0)
           (-45.0 45.0)
  end
  begin
     id 24 
     name rclavicle
     direction -0.882781 0.469197 0.0234974   
     length 3.95647  
     axis 0 0 0   XYZ 
    dof ry rz
    limits (-10.0 20.0)
           (-20.0 0.0)
  end
  begin
     id 25 
     name rhumerus
     direction -1 -4.48965e-011 -1.54906e-018  
     length 5.07905   
     axis -180 30 90   XYZ
    dof rx ry rz
    limits (-90.0 60.0)
           (-90.0 90.0)
           (-90.0 90.0)
  end
  begin
     id 26 
     name rradius
     direction -1 -4.48972e-011 5.47489e-027   
     length 3.54394   
     axis -180 30 90   XYZ
    dof rx
    limits (-10.0 170.0)
  end
  begin
     id 27 
     name rwrist
     direction -1 -4.48955e-011 1.17969e-026   
     length 1.77197   
     axis -7.69454e-015 -90 -90   XYZ
    dof ry
    limits (-180.0 0.0)
  end
  begin
     id 28
     name rhand
     direction -1 -4.48982e-011 2.35888e-026   
     length 0.681156   
     axis -1.50533e-014 -90 -90   XYZ
    dof rx rz
    limits (-90.0 90.0)
           (-45.0 45.0)
  end
  begin
     id 29
     name rfingers
     direction -1 -4.48955e-011 4.71877e-026   
     length 0.549165   
     axis -3.01059e-014 -90 -90   XYZ
    dof rx
    limits (0.0 90.0)
  end
  begin
     id 30
     name rthumb
     direction -0.707107 -6.3491e-011 0.707107   
     length 0.788495   
     axis -90 -45 5.12164e-014   XYZ
    dof rx rz
    limits (-45.0 45.0)
           (-45.0 45.0)
  end
:hierarchy
  begin
    root lhipjoint rhipjoint lowerback
    lhipjoint lfemur
    lfemur ltibia
    ltibia lfoot
    lfoot ltoes
    rhipjoint rfemur
    rfemur rtibia
    rtibia rfoot
    rfoot rtoes
    lowerback upperback
    upperback thorax
    thorax lowerneck lclavicle rclavicle
    lowerneck upperneck
    upperneck head
    lclavicle lhumerus
    lhumerus lradius
    lradius lwrist
    lwrist lhand lthumb
    lhand lfingers
    rclavicle rhumerus
    rhumerus rradius
    rradius rwrist
    rwrist rhand rthumb
    rhand rfingers
  end

#!OML:ASF H:\Bending\Project 1\Capture day 1\Session 1\Subject.ASF
:FULLY-SPECIFIED
:DEGREES
188
root -11.0238 18.1662 -16.2307 -148.836 84.5728 -165.713
lowerback 24.1304 -1.31303 1.09337
upperback 3.06753 -0.933953 1.93882
thorax -10.059 -0.324611 1.80623
lowerneck -25.0589 -2.38615 -5.29407
upperneck 20.2088 -1.96389 2.60382
head 10.7158 -0.969012 1.49384
rclavicle 8.24956e-015 3.1408e-014
rhumerus -19.2773 29.0559 -86.5261
rradius 61.5115
rwrist -1.70039
rhand -21.167 -28.738
rfingers 7.12502
rthumb 5.2131 -58.6539
lclavicle 8.24956e-015 3.1408e-014
lhumerus -23.13 -38.7541 91.0594
lradius 74.4226
lwrist 41.1435
lhand -26.6101 21.2547
lfingers 7.12502
lthumb -0.0434664 51.2344
rfemur -24.9714 -8.93151 18.7204
rtibia 19.5481
rfoot -9.44717 -13.6777
rtoes 0.141452
lfemur -30.5984 -1.02404 -10.2293
ltibia 27.7969
lfoot -14.1552 0.569018
ltoes -4.27315
189
root -10.9409 18.1754 -16.2374 -148.326 84.5898 -164.753
lowerback 22.7611 -1.35704 1.16966
upperback 2.60997 -1.05358 1.8574
thorax -9.8401 -0.406186 1.6877
lowerneck -25.105 -2.37165 -5.23709
upperneck 21.1377 -1.96718 2.63126
head 11.0691 -0.964144 1.50145
rclavicle 2.88238e-015 -5.36719e-014
rhumerus -21.1779 29.8688 -87.1757
rradius 62.4744
rwrist -2.11986
rhand -21.0169 -28.5247
rfingers 7.12502
rthumb 5.35808 -58.437
lclavicle 2.88238e-015 -5.36719e-014
lhumerus -25.538 -39.0246 91.6814
lradius 75.8172
lwrist 41.5562
lhand -25.8869 21.1742
lfingers 7.12502
lthumb 0.654944 51.153
rfemur -23.474 -8.57395 18.6334
rtibia 18.3797
rfoot -9.21284 -14.0004
rtoes -0.251198
lfemur -29.5578 -1.3848 -10.0883
ltibia 27.4448
lfoot -14.5007 0.811618
ltoes -3.87878
190
root -10.8546 18.1831 -16.2452 -147.79 84.5882 -163.683
lowerback 21.4927 -1.3759 1.28534
upperback 2.17868 -1.12091 1.79781
thorax -9.63734 -0.461732 1.55475
lowerneck -25.1061 -2.39853 -5.27059
upperneck 21.9972 -1.99801 2.67326
head 11.3954 -0.976175 1.52511
rclavicle -1.47101e-014 -1.21259e-014
rhumerus -23.2197 30.5785 -87.804
rradius 63.6608
rwrist -2.6233
rhand -20.8568 -28.2255
rfingers 7.12502
rthumb 5.51258 -58.1338
lclavicle -1.47101e-014 -1.21259e-014
lhumerus -27.8575 -39.4109 92.4341
lradius 77.0837
lwrist 41.9246
lhand -25.4028 21.0781
lfingers 7.12502
lthumb 1.12249 51.0549
rfemur -21.8321 -8.23479 18.5629
rtibia 17.1251
rfoot -8.93349 -14.3198
rtoes -0.82625
lfemur -28.4207 -1.82568 -9.92825
ltibia 27.102
lfoot -14.887 1.0854
ltoes -3.30455
191
root -10.7646 18.1881 -16.2543 -147.091 84.5971 -162.33
lowerback 20.3768 -1.35801 1.4094
upperback 1.78391 -1.12626 1.77007
thorax -9.46929 -0.484641 1.43643
lowerneck -25.0642 -2.45442 -5.37957
upperneck 22.7684 -2.04153 2.71699
head 11.686 -0.999594 1.5598
rclavicle 1.50082e-014 8.54774e-015
rhumerus -25.3736 31.1952 -88.4094
rradius 65.033
rwrist -3.19816
rhand -20.6918 -27.9597
rfingers 7.12502
rthumb 5.67196 -57.8638
lclavicle 1.50082e-014 8.54774e-015
lhumerus -30.0681 -39.8956 93.3172
lradius 78.2036
lwrist 42.2344
lhand -25.1536 20.9489
lfingers 7.12502
lthumb 1.36322 50.9243
rfemur -20.0023 -7.8782 18.4992
rtibia 15.7765
rfoot -8.63987 -14.6173
rtoes -1.382
lfemur -27.1368 -2.34488 -9.75505
ltibia 26.7682
lfoot -15.3207 1.42136
ltoes -2.74332
192
root -10.6717 18.1894 -16.2645 -146.221 84.6385 -160.692
lowerback 19.4124 -1.30342 1.50882
upperback 1.42571 -1.07763 1.77453
thorax -9.33708 -0.477478 1.35581
lowerneck -24.986 -2.52107 -5.51349
upperneck 23.447 -2.08379 2.73447
head 11.9377 -1.02803 1.58882
rclavicle 1.3418e-014 3.57812e-015
rhumerus -27.5846 31.7164 -89.0089
rradius 66.5256
rwrist -3.81623
rhand -20.546 -27.8536
rfingers 7.12502
rthumb 5.81268 -57.7538
lclavicle 1.3418e-014 3.57812e-015
lhumerus -32.156 -40.4247 94.3001
lradius 79.1864
lwrist 42.4797
lhand -25.0968 20.7961
lfingers 7.12502
lthumb 1.41807 50.7712
rfemur -17.9978 -7.47717 18.427
rtibia 14.3429
rfoot -8.36168 -14.8868
rtoes -1.73481
lfemur -25.7111 -2.92821 -9.59309
ltibia 26.4443
lfoot -15.795 1.83978
ltoes -2.4491
193
root -10.5775 18.1868 -16.2755 -145.306 84.719 -158.94
lowerback 18.5513 -1.22199 1.55758
upperback 1.09486 -0.996371 1.8017
thorax -9.226 -0.450121 1.32302
lowerneck -24.8835 -2.58276 -5.61345
upperneck 24.0443 -2.11855 2.70289
head 12.1543 -1.05664 1.59455
rclavicle -2.28602e-015 -2.3059e-014
rhumerus -29.7887 32.1233 -89.6276
rradius 68.0743
rwrist -4.43931
rhand -20.4583 -27.9812
rfingers 7.12502
rthumb 5.89734 -57.8791
lclavicle -2.28602e-015 -2.3059e-014
lhumerus -34.1223 -40.9319 95.3354
lradius 80.0706
lwrist 42.6577
lhand -25.1729 20.6502
lfingers 7.12502
lthumb 1.34462 50.6257
rfemur -15.8797 -7.01845 18.3306
rtibia 12.8429
rfoot -8.11441 -15.1437
rtoes -1.78802
lfemur -24.1979 -3.55489 -9.47444
ltibia 26.1288
lfoot -16.2907 2.34294
ltoes -2.60651
194
root -10.484 18.1813 -16.2867 -144.562 84.8313 -157.354
lowerback 17.7241 -1.12782 1.54277
upperback 0.776927 -0.90746 1.83577
thorax -9.11456 -0.414986 1.33365
lowerneck -24.774 -2.63329 -5.64354
upperneck 24.5849 -2.15054 2.6238
head 12.3476 -1.08384 1.57053
rclavicle 1.39149e-015 3.3197e-014
rhumerus -31.9316 32.3842 -90.2856
rradius 69.6394
rwrist -5.0248
rhand -20.4634 -28.3385
rfingers 7.12502
rthumb 5.89246 -58.2366
lclavicle 1.39149e-015 3.3197e-014
lhumerus -35.9888 -41.3648 96.3811
lradius 80.9136
lwrist 42.7643
lhand -25.3338 20.5453
lfingers 7.12502
lthumb 1.18917 50.5217
rfemur -13.7286 -6.5041 18.2005
rtibia 11.2901
rfoot -7.88934 -15.419
rtoes -1.56653
lfemur -22.6771 -4.20451 -9.42447
ltibia 25.8157
lfoot -16.7851 2.91475
ltoes -3.22967
195
root -10.3928 18.1743 -16.2971 -144.19 84.9591 -156.195
lowerback 16.872 -1.03363 1.46821
upperback 0.457816 -0.829605 1.86166
thorax -8.98624 -0.382015 1.37284
lowerneck -24.6771 -2.67802 -5.61009
upperneck 25.0985 -2.19338 2.52974
head 12.5338 -1.11145 1.52776
rclavicle 1.59028e-014 -8.34896e-015
rhumerus -33.9834 32.4665 -90.9859
rradius 71.2129
rwrist -5.53207
rhand -20.5714 -28.8561
rfingers 7.12502
rthumb 5.78821 -58.757
lclavicle 1.59028e-014 -8.34896e-015
lhumerus -37.7961 -41.6979 97.4207
lradius 81.7727
lwrist 42.791
lhand -25.5651 20.5018
lfingers 7.12502
lthumb 0.965791 50.4794
rfemur -11.6144 -6.31659 18.1161
rtibia 9.67037
rfoot -7.6684 -15.3755
rtoes -1.2137
lfemur -21.2234 -4.86212 -9.44899
ltibia 25.498
lfoot -17.2626 3.52137
ltoes -4.10309
196
root -10.3052 18.1672 -16.306 -144.274 85.0834 -155.58
lowerback 15.9723 -0.947348 1.35136
upperback 0.129028 -0.769991 1.8722
thorax -8.83792 -0.355707 1.42408
lowerneck -24.6088 -2.72975 -5.5586
upperneck 25.6096 -2.26229 2.47211
head 12.7275 -1.14316 1.49093
rclavicle -1.98785e-015 1.72943e-014
rhumerus -35.9411 32.3532 -91.7102
rradius 72.8096
rwrist -5.93124
rhand -20.7594 -29.4392
rfingers 7.12502
rthumb 5.60668 -59.345
lclavicle -1.98785e-015 1.72943e-014
lhumerus -39.5913 -41.9271 98.4694
lradius 82.6839
lwrist 42.7235
lhand -25.8842 20.5142
lfingers 7.12502
lthumb 0.657577 50.4929
rfemur -9.53134 -6.16326 17.9991
rtibia 7.91562
rfoot -7.36067 -15.3487
rtoes -0.93485
lfemur -19.8823 -5.51866 -9.53236
ltibia 25.1728
lfoot -17.7212 4.11838
ltoes -4.86142
